<svg width="914" height="400" fill="none" xmlns="http://www.w3.org/2000/svg"><style>#CL0 {fill: #333;}@media (prefers-color-scheme: dark) {#CL0 {fill: #CCC;}}</style><path d="M327.412 212h-4.416v-19.605h4.416V212Zm14.096-.506c-.975.565-2.383.848-4.224.848-2.151 0-3.892-.652-5.223-1.955-1.331-1.304-1.996-2.985-1.996-5.045 0-2.379.711-4.252 2.133-5.619 1.431-1.377 3.34-2.065 5.728-2.065 1.65 0 2.844.219 3.582.656v3.665a4.92 4.92 0 0 0-3.021-1.012c-1.24 0-2.224.364-2.953 1.094-.72.72-1.08 1.718-1.08 2.994 0 1.239.346 2.215 1.039 2.925.692.702 1.645 1.053 2.857 1.053 1.076 0 2.128-.337 3.158-1.012v3.473Zm14.862-5.264h-9.133c.146 2.033 1.427 3.049 3.842 3.049 1.54 0 2.894-.364 4.061-1.093v3.117c-1.295.692-2.976 1.039-5.045 1.039-2.261 0-4.015-.625-5.264-1.873-1.249-1.258-1.873-3.008-1.873-5.25 0-2.324.674-4.166 2.023-5.524 1.349-1.358 3.008-2.037 4.977-2.037 2.042 0 3.618.606 4.73 1.819 1.122 1.212 1.682 2.857 1.682 4.935v1.818Zm-4.006-2.652c0-2.005-.811-3.008-2.433-3.008-.693 0-1.295.287-1.805.862-.501.574-.807 1.289-.916 2.146h5.154Zm16.626 7.916c-.975.565-2.384.848-4.225.848-2.151 0-3.892-.652-5.222-1.955-1.331-1.304-1.997-2.985-1.997-5.045 0-2.379.711-4.252 2.133-5.619 1.431-1.377 3.341-2.065 5.729-2.065 1.649 0 2.843.219 3.582.656v3.665a4.925 4.925 0 0 0-3.022-1.012c-1.239 0-2.224.364-2.953 1.094-.72.72-1.08 1.718-1.08 2.994 0 1.239.346 2.215 1.039 2.925.693.702 1.645 1.053 2.858 1.053 1.075 0 2.128-.337 3.158-1.012v3.473Zm13.932.506h-4.088v-2.01h-.055c-.938 1.568-2.328 2.352-4.17 2.352-1.358 0-2.429-.383-3.212-1.149-.775-.774-1.163-1.804-1.163-3.089 0-2.717 1.609-4.284 4.827-4.704l3.8-.505c0-1.532-.829-2.297-2.488-2.297-1.668 0-3.254.496-4.758 1.49v-3.254c.602-.31 1.422-.583 2.461-.82 1.048-.237 2.001-.356 2.858-.356 3.992 0 5.988 1.992 5.988 5.975V212Zm-4.061-5.688v-.943l-2.543.328c-1.403.183-2.105.816-2.105 1.901 0 .492.169.897.506 1.216.346.31.811.465 1.394.465.812 0 1.472-.278 1.983-.834.51-.565.765-1.276.765-2.133Zm6.003 5.319v-3.5a9.27 9.27 0 0 0 2.119.957c.711.21 1.381.314 2.01.314.765 0 1.367-.104 1.805-.314.446-.21.669-.529.669-.957 0-.274-.1-.501-.3-.684a2.774 2.774 0 0 0-.78-.478 8.237 8.237 0 0 0-1.025-.369c-.374-.11-.734-.233-1.08-.37a11.238 11.238 0 0 1-1.477-.669 4.589 4.589 0 0 1-1.066-.848 3.45 3.45 0 0 1-.656-1.108c-.146-.419-.219-.916-.219-1.49 0-.784.169-1.458.506-2.023a4.206 4.206 0 0 1 1.367-1.381 6.11 6.11 0 0 1 1.955-.793c.738-.173 1.504-.26 2.297-.26.62 0 1.249.05 1.887.151.638.091 1.267.227 1.886.41v3.336a6.625 6.625 0 0 0-1.763-.711 7.146 7.146 0 0 0-1.832-.246 3.82 3.82 0 0 0-.807.082 2.3 2.3 0 0 0-.656.218 1.137 1.137 0 0 0-.451.37.813.813 0 0 0-.164.505c0 .256.082.474.246.657.164.182.378.341.642.478.265.128.556.246.875.356.328.1.652.205.971.314.574.201 1.094.419 1.559.656.464.237.861.515 1.189.834.337.319.592.693.766 1.121.182.429.273.939.273 1.532 0 .829-.182 1.54-.547 2.133a4.327 4.327 0 0 1-1.435 1.435c-.593.365-1.281.629-2.065.793-.775.173-1.581.26-2.42.26-1.54 0-2.967-.237-4.279-.711Zm21.151.205c-.638.337-1.6.506-2.885.506-3.044 0-4.566-1.582-4.566-4.744v-6.412h-2.27V198h2.27v-3.021l4.306-1.231V198h3.145v3.186h-3.145v5.66c0 1.458.579 2.187 1.737 2.187.455 0 .925-.132 1.408-.396v3.199Zm27.14.164v-13.535c0-.693.054-1.809.164-3.35h-.055c-.128.41-.246.766-.355 1.067-.101.3-.196.547-.288.738L425.785 212h-.779l-6.849-14.984c-.201-.456-.406-1.099-.616-1.928h-.054c.036.419.059.898.068 1.435.018.538.027 1.135.027 1.791V212h-1.777v-19.605h2.146l6.659 14.738c.136.31.269.629.396.957.137.319.26.661.369 1.025h.082c.128-.364.242-.697.342-.998.11-.301.242-.624.397-.971l6.713-14.751h2.037V212h-1.791Zm6.891-17.541c-.337 0-.629-.119-.875-.355a1.2 1.2 0 0 1-.369-.903c0-.355.123-.647.369-.875.246-.237.538-.355.875-.355.173 0 .337.032.492.095.155.055.287.137.396.246.119.11.21.242.274.397.073.146.109.31.109.492a1.25 1.25 0 0 1-.369.903 1.367 1.367 0 0 1-.41.259c-.146.064-.31.096-.492.096ZM439.184 212v-14h1.75v14h-1.75Zm4.909-2.516a5.6 5.6 0 0 0 .862.561c.309.164.628.305.957.424.328.118.656.209.984.273.337.055.656.082.957.082 2.078 0 3.117-.779 3.117-2.338 0-.355-.073-.66-.219-.916a2.29 2.29 0 0 0-.629-.711 5.037 5.037 0 0 0-.984-.601 27.995 27.995 0 0 0-1.299-.574 13.197 13.197 0 0 1-1.668-.807 5.15 5.15 0 0 1-1.148-.889 3.321 3.321 0 0 1-.67-1.066 3.779 3.779 0 0 1-.219-1.326c0-.62.132-1.172.397-1.655a3.917 3.917 0 0 1 1.093-1.23c.456-.337.98-.593 1.573-.766a6.473 6.473 0 0 1 1.886-.273c1.213 0 2.27.228 3.172.683v1.846c-1.048-.674-2.178-1.012-3.39-1.012-.438 0-.839.055-1.203.165a2.792 2.792 0 0 0-.916.464 2.186 2.186 0 0 0-.602.725 2.015 2.015 0 0 0-.205.916c0 .346.055.652.164.916.109.255.278.488.506.697.237.21.538.41.902.602.374.191.825.396 1.354.615a16.16 16.16 0 0 1 1.75.82c.492.265.897.556 1.216.875.319.31.556.661.711 1.053.155.383.233.83.233 1.34 0 .629-.132 1.189-.397 1.682a3.534 3.534 0 0 1-1.08 1.244 4.89 4.89 0 0 1-1.613.765c-.62.174-1.294.26-2.023.26-1.413 0-2.603-.296-3.569-.889v-1.955Zm10.815 0a5.6 5.6 0 0 0 .862.561c.309.164.628.305.957.424.328.118.656.209.984.273.337.055.656.082.957.082 2.078 0 3.117-.779 3.117-2.338 0-.355-.073-.66-.219-.916a2.3 2.3 0 0 0-.628-.711 5.077 5.077 0 0 0-.985-.601 27.995 27.995 0 0 0-1.299-.574 13.197 13.197 0 0 1-1.668-.807 5.15 5.15 0 0 1-1.148-.889 3.321 3.321 0 0 1-.67-1.066 3.779 3.779 0 0 1-.219-1.326c0-.62.132-1.172.397-1.655a3.917 3.917 0 0 1 1.093-1.23c.456-.337.98-.593 1.573-.766a6.473 6.473 0 0 1 1.886-.273c1.213 0 2.27.228 3.172.683v1.846c-1.048-.674-2.178-1.012-3.39-1.012-.438 0-.839.055-1.203.165a2.792 2.792 0 0 0-.916.464 2.186 2.186 0 0 0-.602.725 2.015 2.015 0 0 0-.205.916c0 .346.055.652.164.916.109.255.278.488.506.697.237.21.538.41.902.602.374.191.825.396 1.354.615a16.07 16.07 0 0 1 1.75.82c.492.265.897.556 1.216.875.319.31.556.661.711 1.053.155.383.233.83.233 1.34 0 .629-.132 1.189-.397 1.682a3.534 3.534 0 0 1-1.08 1.244 4.89 4.89 0 0 1-1.613.765c-.62.174-1.294.26-2.023.26-1.413 0-2.603-.296-3.569-.889v-1.955Zm12.47-15.025c-.338 0-.629-.119-.875-.355a1.197 1.197 0 0 1-.37-.903c0-.355.123-.647.37-.875.246-.237.537-.355.875-.355.173 0 .337.032.492.095.155.055.287.137.396.246.119.11.21.242.274.397.073.146.109.31.109.492a1.276 1.276 0 0 1-.369.903 1.38 1.38 0 0 1-.41.259c-.146.064-.31.096-.492.096ZM466.516 212v-14h1.75v14h-1.75Zm11.43.328c-1.039 0-1.973-.173-2.802-.519a6.044 6.044 0 0 1-2.106-1.463 6.55 6.55 0 0 1-1.34-2.284c-.31-.884-.464-1.863-.464-2.939 0-1.167.164-2.21.492-3.131.328-.92.793-1.7 1.394-2.338a6.016 6.016 0 0 1 2.201-1.476c.857-.338 1.814-.506 2.872-.506 1.011 0 1.923.168 2.734.506a5.507 5.507 0 0 1 2.064 1.435c.565.629.998 1.395 1.299 2.297.301.902.451 1.928.451 3.076 0 1.094-.159 2.092-.478 2.994a6.671 6.671 0 0 1-1.34 2.311 5.964 5.964 0 0 1-2.133 1.504c-.838.355-1.786.533-2.844.533Zm.137-13.139c-.765 0-1.458.133-2.078.397a4.39 4.39 0 0 0-1.6 1.162c-.437.501-.774 1.121-1.011 1.859-.237.73-.356 1.559-.356 2.489 0 .875.119 1.663.356 2.365a5.4 5.4 0 0 0 .998 1.805c.437.501.966.888 1.586 1.162.619.264 1.312.396 2.078.396.784 0 1.476-.127 2.078-.383a4.205 4.205 0 0 0 1.531-1.134c.419-.502.734-1.112.944-1.832.218-.72.328-1.541.328-2.461 0-1.887-.42-3.327-1.258-4.321-.839-1.002-2.037-1.504-3.596-1.504ZM497.156 212v-8.066c0-3.163-1.148-4.745-3.445-4.745a3.9 3.9 0 0 0-1.696.37 4.05 4.05 0 0 0-1.353.998c-.374.428-.67.938-.889 1.531a5.57 5.57 0 0 0-.314 1.9V212h-1.75v-14h1.75v2.434h.054c1.039-1.842 2.603-2.762 4.69-2.762 1.531 0 2.698.497 3.5 1.49.802.994 1.203 2.429 1.203 4.307V212h-1.75Zm26.005-.725c-1.513.711-3.24 1.067-5.182 1.067-1.385 0-2.643-.242-3.773-.725a8.562 8.562 0 0 1-2.899-2.037c-.793-.866-1.408-1.896-1.845-3.09-.429-1.194-.643-2.497-.643-3.91 0-1.486.228-2.866.684-4.142.465-1.286 1.125-2.398 1.982-3.336a9.104 9.104 0 0 1 3.104-2.229c1.221-.538 2.588-.807 4.101-.807 1.668 0 3.158.256 4.471.766v1.941a9.932 9.932 0 0 0-4.498-1.052c-1.267 0-2.393.218-3.377.656a6.955 6.955 0 0 0-2.488 1.832c-.675.775-1.19 1.695-1.545 2.762-.356 1.057-.533 2.215-.533 3.472 0 1.131.159 2.197.478 3.2a7.754 7.754 0 0 0 1.408 2.611 6.781 6.781 0 0 0 2.338 1.777c.93.438 2.01.657 3.24.657 1.887 0 3.546-.397 4.977-1.19v1.777Zm9.065 1.053c-1.039 0-1.973-.173-2.803-.519a6.04 6.04 0 0 1-2.105-1.463 6.534 6.534 0 0 1-1.34-2.284c-.31-.884-.465-1.863-.465-2.939 0-1.167.164-2.21.492-3.131.328-.92.793-1.7 1.395-2.338a6 6 0 0 1 2.201-1.476c.857-.338 1.814-.506 2.871-.506 1.012 0 1.923.168 2.734.506.812.328 1.5.806 2.065 1.435s.998 1.395 1.299 2.297c.3.902.451 1.928.451 3.076 0 1.094-.16 2.092-.479 2.994a6.669 6.669 0 0 1-1.339 2.311 5.981 5.981 0 0 1-2.133 1.504c-.839.355-1.787.533-2.844.533Zm.137-13.139c-.766 0-1.459.133-2.078.397a4.39 4.39 0 0 0-1.6 1.162c-.438.501-.775 1.121-1.012 1.859-.237.73-.355 1.559-.355 2.489 0 .875.118 1.663.355 2.365.237.702.57 1.303.998 1.805.438.501.966.888 1.586 1.162.62.264 1.313.396 2.078.396.784 0 1.477-.127 2.078-.383a4.208 4.208 0 0 0 1.532-1.134c.419-.502.733-1.112.943-1.832.219-.72.328-1.541.328-2.461 0-1.887-.419-3.327-1.258-4.321-.838-1.002-2.037-1.504-3.595-1.504ZM551.435 212v-8.066c0-3.163-1.148-4.745-3.445-4.745-.611 0-1.176.123-1.695.37-.52.237-.971.569-1.354.998-.373.428-.67.938-.888 1.531a5.57 5.57 0 0 0-.315 1.9V212h-1.75v-14h1.75v2.434h.055c1.039-1.842 2.602-2.762 4.689-2.762 1.532 0 2.698.497 3.5 1.49.802.994 1.203 2.429 1.203 4.307V212h-1.75Zm11.431-.164a4.34 4.34 0 0 1-1.969.451c-2.26 0-3.391-1.303-3.391-3.91v-8.846h-2.461V198h2.461v-3.527l1.75-.575V198h3.61v1.531h-3.61v8.573c0 .947.155 1.631.465 2.05.31.42.834.629 1.572.629.547 0 1.071-.164 1.573-.492v1.545Zm9.283-12.045c-.41-.301-.938-.451-1.585-.451-.465 0-.875.091-1.231.273-.355.173-.67.41-.943.711a4.561 4.561 0 0 0-.684 1.053 7.906 7.906 0 0 0-.451 1.23c-.109.429-.191.862-.246 1.299-.046.438-.069.852-.069 1.244V212h-1.736v-14h1.736v2.994h.055c.164-.51.369-.966.615-1.367.256-.41.547-.752.875-1.025a3.589 3.589 0 0 1 1.067-.643 3.495 3.495 0 0 1 1.23-.219c.283 0 .533.018.752.055.228.036.433.091.615.164v1.832Zm7.329 12.537c-1.039 0-1.973-.173-2.803-.519a6.04 6.04 0 0 1-2.105-1.463 6.55 6.55 0 0 1-1.34-2.284c-.31-.884-.465-1.863-.465-2.939 0-1.167.164-2.21.492-3.131.329-.92.793-1.7 1.395-2.338a6.008 6.008 0 0 1 2.201-1.476c.857-.338 1.814-.506 2.871-.506 1.012 0 1.923.168 2.735.506a5.507 5.507 0 0 1 2.064 1.435c.565.629.998 1.395 1.299 2.297.301.902.451 1.928.451 3.076 0 1.094-.159 2.092-.478 2.994a6.671 6.671 0 0 1-1.34 2.311 5.981 5.981 0 0 1-2.133 1.504c-.839.355-1.787.533-2.844.533Zm.137-13.139c-.766 0-1.458.133-2.078.397a4.39 4.39 0 0 0-1.6 1.162c-.437.501-.775 1.121-1.012 1.859-.237.73-.355 1.559-.355 2.489 0 .875.118 1.663.355 2.365.237.702.57 1.303.998 1.805.438.501.967.888 1.586 1.162.62.264 1.313.396 2.079.396.783 0 1.476-.127 2.078-.383a4.205 4.205 0 0 0 1.531-1.134c.419-.502.734-1.112.943-1.832.219-.72.328-1.541.328-2.461 0-1.887-.419-3.327-1.257-4.321-.839-1.002-2.038-1.504-3.596-1.504ZM589.24 212v-20.727h1.75V212h-1.75Z" id="CL0"/></svg>